<svg xmlns="http://www.w3.org/2000/svg" viewBox="0 0 64 64">
  <defs>
    <linearGradient id="g" x1="0" y1="0" x2="1" y2="1">
      <stop offset="0%" stop-color="#6d28d9"/>
      <stop offset="100%" stop-color="#0ea5e9"/>
    </linearGradient>
  </defs>
  <rect x="6" y="6" width="52" height="52" rx="12" fill="url(#g)" opacity="0.15"/>
  <path d="M22 14h16c6 0 10 4 10 9 0 4-2.6 6.8-6.1 7.9 2.7 1.1 4.1 3.4 4.1 6.4 0 6-4.9 9.7-11.5 9.7H22V14zm12.5 14.7c3.2 0 5.2-1.7 5.2-4.4s-2-4.2-5.2-4.2H28v8.6h6.5zm.6 13.2c3.7 0 6-1.8 6-4.9s-2.3-4.9-6-4.9H28v9.8h7.1z" fill="#111827"/>
</svg>
